<svg xmlns="http://www.w3.org/2000/svg" viewBox="0 0 160 160" width="160" height="160">
  <defs>
    <filter id="shadow" x="-10%" y="-10%" width="120%" height="120%">
      <feDropShadow dx="0" dy="4" stdDeviation="4" flood-opacity="0.15"/>
    </filter>
    <filter id="glow" x="-20%" y="-20%" width="140%" height="140%">
      <feGaussianBlur stdDeviation="3" result="blur" />
      <feComposite in="SourceGraphic" in2="blur" operator="over" />
    </filter>
    
      <linearGradient id="devScreenGrad" x1="0%" y1="0%" x2="100%" y2="100%">
        <stop offset="0%" stop-color="#1e293b"/>
        <stop offset="100%" stop-color="#0f172a"/>
      </linearGradient>
    
  </defs>
  
      <g filter="url(#shadow)">
        <rect x="30" y="32" width="100" height="74" rx="8" fill="#334155" stroke="#1e293b" stroke-width="3"/>
        <rect x="36" y="38" width="88" height="62" rx="4" fill="url(#devScreenGrad)" stroke="#38bdf8" stroke-width="1.5"/>
        <path d="M18 114 L142 114 L132 126 L28 126 Z" fill="#475569" stroke="#1e293b" stroke-width="2"/>
        <rect x="64" y="116" width="32" height="6" rx="2" fill="#64748b"/>
        
        <path d="M66 60 Q72 54 78 60" stroke="#1e293b" stroke-width="3" stroke-linecap="round" fill="none"/>
        <path d="M82 60 Q88 54 94 60" stroke="#1e293b" stroke-width="3" stroke-linecap="round" fill="none"/>
        <path d="M74 70 Q80 75 86 70" stroke="#1e293b" stroke-width="2.5" stroke-linecap="round" fill="none"/>
        <rect x="54" y="86" width="52" height="15" rx="5" fill="#fef3c7" stroke="#d97706" stroke-width="1.5"/>
        <text x="80" y="97" font-family="sans-serif" font-weight="900" font-size="9" fill="#b45309" text-anchor="middle">THANKS! 🙏</text>
      
      </g>
    
</svg>