<svg xmlns="http://www.w3.org/2000/svg" viewBox="0 0 160 160" width="160" height="160">
  <defs>
    <filter id="shadow" x="-10%" y="-10%" width="120%" height="120%">
      <feDropShadow dx="0" dy="4" stdDeviation="4" flood-opacity="0.15"/>
    </filter>
    <filter id="glow" x="-20%" y="-20%" width="140%" height="140%">
      <feGaussianBlur stdDeviation="3" result="blur" />
      <feComposite in="SourceGraphic" in2="blur" operator="over" />
    </filter>
    
  </defs>
  
      <g filter="url(#shadow)">
        <circle cx="80" cy="28" r="12" fill="#facc15" stroke="#ca8a04" stroke-width="2"/>
        <path d="M80 50 C65 25 30 35 30 65 C30 95 80 125 80 125 C80 125 130 95 130 65 C130 35 95 25 80 50 Z" fill="#fb7185" stroke="#e11d48" stroke-width="3"/>
        <path d="M62 68 Q68 62 74 68" stroke="#881337" stroke-width="3" stroke-linecap="round" fill="none"/>
        <circle cx="94" cy="68" r="3.5" fill="#881337"/>
        <path d="M72 78 Q80 84 88 78" stroke="#881337" stroke-width="2.5" stroke-linecap="round" fill="none"/>
        <rect x="52" y="96" width="56" height="14" rx="5" fill="#fef08a" stroke="#ca8a04" stroke-width="1.5"/>
        <text x="80" y="107" font-family="sans-serif" font-weight="900" font-size="9" fill="#a16207" text-anchor="middle">SUNSHINE ☀️</text>
      </g>
    
</svg>