<svg xmlns="http://www.w3.org/2000/svg" viewBox="0 0 160 160" width="160" height="160">
  <defs>
    <filter id="shadow" x="-10%" y="-10%" width="120%" height="120%">
      <feDropShadow dx="0" dy="4" stdDeviation="4" flood-opacity="0.15"/>
    </filter>
    <filter id="glow" x="-20%" y="-20%" width="140%" height="140%">
      <feGaussianBlur stdDeviation="3" result="blur" />
      <feComposite in="SourceGraphic" in2="blur" operator="over" />
    </filter>
    
  </defs>
  
      <g filter="url(#shadow)">
        <line x1="80" y1="20" x2="80" y2="40" stroke="#0891b2" stroke-width="3.5"/>
        <circle cx="80" cy="18" r="6" fill="#facc15" stroke="#ca8a04" stroke-width="2"/>
        <rect x="28" y="68" width="8" height="18" rx="3" fill="#facc15"/>
        <rect x="124" y="68" width="8" height="18" rx="3" fill="#facc15"/>
        <rect x="36" y="40" width="88" height="80" rx="14" fill="#06b6d4" stroke="#0891b2" stroke-width="3.5"/>
        <rect x="44" y="50" width="72" height="60" rx="8" fill="#0f172a" stroke="#67e8f9" stroke-width="2"/>
        
        <polygon points="72,52 80,32 88,52" fill="#ec4899" stroke="#be185d" stroke-width="1.5"/>
        <circle cx="80" cy="32" r="3" fill="#facc15"/>
        <path d="M66 74 Q72 68 78 74" stroke="#1e293b" stroke-width="3" stroke-linecap="round" fill="none"/>
        <path d="M82 74 Q88 68 94 74" stroke="#1e293b" stroke-width="3" stroke-linecap="round" fill="none"/>
        <ellipse cx="80" cy="84" rx="8" ry="5" fill="#ef4444" stroke="#1e293b" stroke-width="2"/>
        <circle cx="56" cy="50" r="2.5" fill="#facc15"/>
        <circle cx="104" cy="50" r="2.5" fill="#38bdf8"/>
        <circle cx="52" cy="70" r="2" fill="#ec4899"/>
        <circle cx="108" cy="70" r="2" fill="#22c55e"/>
      
      </g>
    
</svg>